<?xml version="1.0" encoding="utf-8"?>
<!-- Generator: Adobe Illustrator 16.0.0, SVG Export Plug-In . SVG Version: 6.00 Build 0)  -->
<!DOCTYPE svg PUBLIC "-//W3C//DTD SVG 1.1//EN" "http://www.w3.org/Graphics/SVG/1.1/DTD/svg11.dtd">
<svg version="1.1" id="Layer_1" xmlns="http://www.w3.org/2000/svg" xmlns:xlink="http://www.w3.org/1999/xlink" x="0px" y="0px"
	 width="126px" height="56px" viewBox="0 0 126 56" enable-background="new 0 0 126 56" xml:space="preserve">
<polygon fill="#D63600" points="95.594,1.846 105.512,1.846 110.262,17.846 115.344,1.846 124.928,1.846 117.344,27.678 
	125.654,54.738 115.094,54.762 110.156,38.855 105.428,54.762 94.287,54.715 103.594,27.642 "/>
<path fill="#DF6238" d="M100.781,35.805c0,0,9.35-1.375,18.141-13.5l6.008-20.456l-9.586-0.002l-5.078,15.745l-4.734-15.828h-9.953
	l7.969,25.75L100.781,35.805z"/>
<g>
	<path fill="#FFFFFF" d="M5.883,54.627V9.337c-0.878,0.593-1.9,1.154-3.064,1.685C1.655,11.554,0.715,11.901,0,12.064V7.651
		c1.226-0.449,2.553-1.169,3.983-2.16S6.547,3.3,7.385,1.891h3.156v52.736H5.883z"/>
</g>
<g>
	<path fill="#FFFFFF" d="M17.387,42.711V41.91h4.367c0.041,2.072,0.231,3.773,0.569,5.105c0.337,1.334,0.855,2.357,1.553,3.076
		c0.696,0.717,1.48,1.203,2.352,1.461c0.871,0.256,1.963,0.383,3.275,0.383c1.189,0,2.199-0.164,3.029-0.492
		c0.83-0.326,1.568-0.896,2.214-1.707c0.646-0.809,1.123-1.957,1.43-3.443c0.308-1.486,0.461-3.336,0.461-5.551
		c0-1.742-0.128-3.285-0.384-4.627c-0.256-1.342-0.677-2.559-1.261-3.645c-0.584-1.086-1.399-1.941-2.445-2.568
		c-1.045-0.623-2.306-0.999-3.782-1.122v-3.967c2.952-0.123,5.001-0.958,6.15-2.507c1.148-1.547,1.722-4.197,1.722-7.949
		c0-3.423-0.584-5.847-1.752-7.272c-1.168-1.424-2.952-2.137-5.351-2.137c-2.419,0-4.28,0.8-5.581,2.398
		c-1.302,1.599-2.035,4.193-2.199,7.78h-4.397v-0.769c0-1.763,0.215-3.403,0.646-4.92s1.107-2.906,2.029-4.167
		c0.922-1.261,2.199-2.255,3.829-2.983c1.629-0.727,3.552-1.091,5.766-1.091c1.66,0,3.156,0.241,4.489,0.723
		c1.333,0.482,2.439,1.133,3.321,1.953c0.881,0.82,1.619,1.799,2.214,2.937c0.595,1.137,1.02,2.332,1.276,3.582
		c0.256,1.251,0.384,2.583,0.384,3.998c0,3.403-0.677,6.182-2.03,8.334c-1.353,2.152-3.085,3.535-5.197,4.15
		c4.817,1.928,7.227,6.519,7.227,13.777c0,10.025-4.08,15.037-12.239,15.037c-1.681,0-3.193-0.242-4.536-0.723
		c-1.343-0.48-2.456-1.127-3.336-1.938c-0.882-0.811-1.615-1.777-2.199-2.906c-0.584-1.127-1-2.301-1.246-3.52
		C17.51,45.381,17.387,44.084,17.387,42.711z"/>
</g>
<g>
	<path fill="#FFFFFF" d="M46.416,42.875v-0.809h4.418c0.041,2.094,0.232,3.814,0.575,5.162c0.342,1.348,0.865,2.385,1.57,3.111
		c0.704,0.725,1.498,1.217,2.38,1.477c0.881,0.26,1.984,0.389,3.313,0.389c1.202,0,2.224-0.166,3.063-0.498
		c0.84-0.33,1.587-0.906,2.24-1.727c0.652-0.818,1.135-1.979,1.445-3.482c0.313-1.502,0.467-3.375,0.467-5.615
		c0-1.762-0.129-3.322-0.389-4.68s-0.684-2.588-1.275-3.686c-0.59-1.1-1.415-1.965-2.473-2.598
		c-1.057-0.633-2.332-1.011-3.824-1.135v-4.013c2.985-0.124,5.059-0.969,6.219-2.535c1.162-1.564,1.742-4.245,1.742-8.04
		c0-3.462-0.59-5.915-1.771-7.356c-1.183-1.44-2.987-2.162-5.413-2.162c-2.447,0-4.329,0.809-5.646,2.426
		c-1.317,1.618-2.059,4.241-2.224,7.87h-4.448v-0.778c0-1.783,0.218-3.441,0.653-4.976s1.119-2.939,2.053-4.215
		c0.933-1.275,2.224-2.281,3.872-3.017c1.648-0.735,3.593-1.104,5.833-1.104c1.679,0,3.191,0.244,4.54,0.731
		c1.348,0.487,2.469,1.146,3.361,1.975c0.891,0.829,1.637,1.819,2.238,2.97s1.031,2.359,1.291,3.624
		c0.26,1.265,0.389,2.613,0.389,4.043c0,3.442-0.686,6.252-2.053,8.429c-1.369,2.178-3.121,3.577-5.258,4.199
		c4.873,1.95,7.311,6.593,7.311,13.935C70.615,50.93,66.488,56,58.236,56c-1.701,0-3.23-0.244-4.588-0.73
		c-1.358-0.486-2.483-1.141-3.375-1.961c-0.892-0.818-1.633-1.797-2.224-2.938s-1.011-2.328-1.26-3.563
		C46.541,45.576,46.416,44.264,46.416,42.875z"/>
</g>
<g>
	<path fill="#FFFFFF" d="M78.377,54.711L88.471,4.762H73.607V1.746h19.881v2.339c-1.539,7.899-3.262,16.43-5.17,25.591
		c-1.908,9.16-3.602,17.506-5.078,25.035H78.377z"/>
</g>
</svg>
