<?xml version="1.0" encoding="UTF-8"?>
<svg viewBox="0 0 189 20" xmlns="http://www.w3.org/2000/svg">
<metadata>image/svg+xml</metadata>
<g>
<title>BG</title>
<rect x="-1" y="-1" width="191" height="22" fill="none"/>
</g>
<g fill="#ffffff" transform="matrix(1 0 0 1.3482 0 -21.185)">
<title>Hash Hackers</title>
<path d="m16.121 28.815h-3.4883v-4.3688h-6.7395v4.3688h-3.5221v-11.328h3.5221v4.0132h6.7395v-4.0132h3.4883v11.328z"/>
<path d="m23.072 28.815l2.1167-2.9125h2.8448q0.508 0 1.0499 0 0.5588 0 0.9652 0.03387-0.23706-0.3048-0.5588-0.762-0.3048-0.47414-0.59266-0.88054l-2.032-2.9972-5.3171 7.5184h-4.1487l7.2644-10.245q0.3556-0.49107 0.89747-0.88054 0.54187-0.38946 1.3716-0.38946 0.79587 0 1.3208 0.37253 0.54187 0.3556 0.9144 0.89747l7.0781 10.245h-13.174z"/>
<path d="m47.993 22.008q2.0828 0 3.1665 0.77893 1.0837 0.762 1.0837 2.3199 0 0.8636-0.27093 1.5579-0.27093 0.69426-0.8636 1.1684-0.59267 0.47413-1.524 0.72813-0.9144 0.254-2.2013 0.254h-10.549l2.2521-2.9125h8.5683q0.62653 0 0.9144-0.18627 0.28787-0.2032 0.28787-0.64347 0-0.44026-0.28787-0.62653t-0.9144-0.18627h-6.1637q-1.1007 0-1.8965-0.23706-0.79586-0.23707-1.3208-0.6604-0.52493-0.42334-0.77893-1.016-0.254-0.6096-0.254-1.3377 0-0.79586 0.27093-1.4393 0.28787-0.6604 0.8636-1.1176 0.59267-0.4572 1.5071-0.7112 0.93133-0.254 2.2183-0.254h9.8383l-2.2521 2.9464h-7.8571q-0.6096 0-0.9144 0.16933-0.28786 0.16934-0.28786 0.6096 0 0.44027 0.28786 0.62654 0.3048 0.16933 0.9144 0.16933h6.1637z"/>
<path d="m67.55 28.815h-3.4883v-4.3688h-6.7395v4.3688h-3.5221v-11.328h3.5221v4.0132h6.7395v-4.0132h3.4883v11.328z"/>
<path d="m89.94 28.815h-3.4883v-4.3688h-6.7395v4.3688h-3.5221v-11.328h3.5221v4.0132h6.7395v-4.0132h3.4883v11.328z"/>
<path d="m96.89 28.815l2.1167-2.9125h2.8448q0.508 0 1.0499 0 0.5588 0 0.9652 0.03387-0.23706-0.3048-0.5588-0.762-0.3048-0.47414-0.59266-0.88054l-2.032-2.9972-5.3171 7.5184h-4.1487l7.2644-10.245q0.3556-0.49107 0.89747-0.88054 0.54187-0.38946 1.3716-0.38946 0.79587 0 1.3208 0.37253 0.54187 0.3556 0.9144 0.89747l7.0781 10.245h-13.174z"/>
<path d="m123.97 25.903l-2.2521 2.9125h-5.6896q-1.4732 0-2.7263-0.44027-1.2531-0.44026-2.1675-1.2023-0.89747-0.77894-1.4224-1.8288-0.508-1.0668-0.508-2.3029 0-1.2361 0.508-2.2521 0.52493-1.0329 1.4224-1.7611 0.9144-0.74506 2.1675-1.1345 1.2531-0.4064 2.7263-0.4064h7.9417l-2.2521 2.9464h-5.6896q-0.7112 0-1.3208 0.2032t-1.0499 0.57573q-0.44027 0.3556-0.69427 0.8636t-0.254 1.1176 0.23707 1.1176q0.254 0.49107 0.69426 0.84667 0.4572 0.3556 1.0668 0.5588 0.6096 0.18627 1.3208 0.18627h7.9417z"/>
<path d="m139.5 28.815h-5.3001l-3.4205-2.9803q-0.88053-0.762-1.3547-1.1853-0.4572-0.42333-0.74506-0.7112 0.0169 0.38947 0.0339 0.8128 0.0169 0.4064 0.0169 0.8128v3.2512h-3.5221v-11.328h3.5221v2.6247q0 0.52493-0.0169 1.0329t-0.0508 0.94827q0.33867-0.3048 0.8128-0.74507 0.49107-0.4572 1.27-1.1007l3.2681-2.7601h5.08l-4.3349 3.2512q-0.5588 0.42333-0.99906 0.74507-0.42334 0.32173-0.762 0.5588-0.33867 0.23706-0.62654 0.42333-0.27093 0.18627-0.54186 0.3556 0.49106 0.33867 1.1853 0.84667t1.7949 1.4055l4.6905 3.7423z"/>
<path d="m153.81 25.903l-2.2521 2.9125h-10.905v-11.328h13.123l-2.2691 2.9464h-7.3321v1.3547h8.9747l-2.0151 2.5739h-6.9596v1.5409h9.6351z"/>
<path d="m171.07 28.815h-4.6905l-2.5231-2.9972h-5.3848v2.9972h-3.5052v-5.7912h9.8552q0.8128 0 1.3716-0.33867 0.5588-0.33866 0.5588-0.93133 0-0.6604-0.508-0.98213-0.508-0.33867-1.4224-0.33867h-9.8552l2.286-2.9464h7.2813q0.9652 0 1.9981 0.18627 1.0329 0.16933 1.8796 0.62653 0.84667 0.4572 1.3885 1.2361 0.5588 0.77894 0.5588 1.9981 0 0.6604-0.2032 1.2531-0.2032 0.59267-0.59267 1.0668-0.37253 0.47414-0.93133 0.8128-0.54187 0.32174-1.2361 0.4572 0.28787 0.22014 0.64347 0.5588 0.3556 0.33867 0.94827 0.93134l2.0828 2.2013z"/>
<path d="m182.83 22.008q2.0828 0 3.1665 0.77893 1.0837 0.762 1.0837 2.3199 0 0.8636-0.27093 1.5579-0.27093 0.69426-0.8636 1.1684-0.59267 0.47413-1.524 0.72813-0.9144 0.254-2.2013 0.254h-10.549l2.2521-2.9125h8.5683q0.62653 0 0.9144-0.18627 0.28787-0.2032 0.28787-0.64347 0-0.44026-0.28787-0.62653t-0.9144-0.18627h-6.1637q-1.1007 0-1.8965-0.23706-0.79586-0.23707-1.3208-0.6604-0.52493-0.42334-0.77893-1.016-0.254-0.6096-0.254-1.3377 0-0.79586 0.27093-1.4393 0.28787-0.6604 0.8636-1.1176 0.59267-0.4572 1.5071-0.7112 0.93133-0.254 2.2183-0.254h9.8383l-2.2521 2.9464h-7.8571q-0.6096 0-0.9144 0.16933-0.28786 0.16934-0.28786 0.6096 0 0.44027 0.28786 0.62654 0.3048 0.16933 0.9144 0.16933h6.1637z"/>
</g>
</svg>
